<svg enable-background="new 0 0 1000 300" viewBox="0 0 1000 300" xmlns="http://www.w3.org/2000/svg"><g fill="black"><path d="m498.4 212.2v-3.6h.1c14.9 0 19-4.3 19-20.1v-54.2c0-21.7-6.6-31.4-21.3-31.4-9.3 0-19.3 5.2-29.6 15.5l-.4.4v69.6c0 15 4.6 19.8 19.4 20.1v3.6h-64.4v-3.6c15-.3 19.4-4.9 19.4-20.1v-65.4c0-14.9-3-20.4-11.2-20.4-2.7 0-6.9 1-10.3 2.2v-3.8l37.4-11.4c1.5-.4 2.8-.6 4-.6 3.7 0 5.6 2.3 5.6 6.8v14.9l2.3-2.7c13.7-16.2 25.2-22.6 41-22.6 22.5 0 33.5 14.4 33.5 43.9v59.3c0 15.2 4.8 20.1 19.7 20.1v3.6h-64.2z"/><path d="m615.3 216.1c-16.1 0-28.7-5.5-38.4-17-9.6-11.2-14.5-26-14.5-43.8 0-19.3 5.7-35.3 17.4-49.1 11.7-14.1 26.3-20.9 44.8-20.9 11.7 0 20.8 3.3 26.9 9.7l2.3 2.4v-35c0-19.1-3.1-25.2-12.9-25.2-2.4 0-6.6.9-9.6 1.9l.1-3.9 41.5-13c.5-.1 1-.2 1.5-.2 2.7 0 4.9 2.2 4.9 4.9v148.9c0 19.6 3.2 29.3 10.5 31.3 1.7.5 5.9.9 11.5 1v3.7l-40.4-.4h-7.1v-12.7l-2.2 1.9c-11.9 10.5-23.8 15.5-36.3 15.5zm9.5-123.2c-20 0-33.5 21.2-33.5 52.7 0 33.3 15.6 56.6 37.8 56.6 7.9 0 16.1-3.9 24.4-11.6l.4-.4v-57.9c.1-25-10.5-39.4-29.1-39.4z"/><path d="m756 216.1c-16.6 0-30.1-5.8-41.4-17.8-10.7-12-16.2-27.3-16.2-45.4 0-19.8 5.4-36.1 15.9-48.6 10.7-12.6 25-18.9 42.5-18.9 30.3 0 50 19.1 50.6 48.8h-88.7v1.3c0 35.1 17.5 56.9 45.7 56.9 17.9 0 31.2-8.7 39.6-26l3 2.2c-2.7 13.4-8.6 24.7-17.5 33.6-9.4 9.4-20.3 13.9-33.5 13.9zm-5.8-122.7c-16.6 0-30 13.9-31.2 32.4l-.1 1.4h59.9l-.1-1.4c-1.1-20.6-11.5-32.4-28.5-32.4z"/><path d="m824.8 212.2v-148.7c0-18.2-3.3-24.3-12.9-24.3-2.7 0-7 .7-10 1.7v-3.4l40.7-15.3c.5-.2 1.1-.3 1.7-.3h1.1c2.7 0 4.9 2.2 4.9 4.9v161.8c0 14.4 5.1 19.8 19.4 20.1v3.6h-44.9z"/><path d="m959.2 216.1c-10.2 0-15.2-5.9-15.5-18.1l-.1-2.8-2.1 1.8c-14.5 12.6-27.3 19.1-38 19.1-19.4 0-31.5-11.6-31.5-30.1 0-10 5.1-18.9 15.4-27.1 10.6-8.3 29.2-17 55.3-25.9l.9-.3v-.9c0-24.7-3.7-38.9-22.8-38.9-16.2 0-19.6 8.8-19.6 16.2 0 13.3-4.2 19.8-12.9 19.8-7 0-11.7-4.9-11.7-12.2 0-8.4 4.2-15.5 12.8-21.7 8.9-6.4 20.8-9.6 35.5-9.6 29.7 0 44.2 12.2 44.2 37.2v56.4c0 16 2.4 19.8 6.6 21.1.4.1.8.2 1.3.2 2.4 0 5.3-1.9 8.7-5.5l2.8 3.4c-9.3 11.9-19.2 17.9-29.3 17.9zm-17.3-76c-33.7 13.7-44 23.1-44 40 0 11.3 8.2 19.8 19 19.8 7.2 0 15.8-3.7 26.3-11.2l.5-.4v-48.9z"/><path d="m389 216.1c-10.2 0-15.2-5.9-15.5-18.1l-.1-2.8-2.1 1.8c-14.5 12.6-27.3 19.1-38 19.1-19.4 0-31.5-11.6-31.5-30.1 0-10 5.1-18.9 15.4-27.1 10.6-8.3 29.2-17 55.3-25.9l.9-.3v-.9c0-24.7-3.7-38.9-22.8-38.9-16.2 0-19.6 8.8-19.6 16.2 0 13.3-4.2 19.8-12.9 19.8-7 0-11.7-4.9-11.7-12.2 0-8.4 4.2-15.5 12.8-21.7 8.8-6.4 20.8-9.6 35.5-9.6 29.8 0 44.2 12.2 44.2 37.2v56.4c0 16 2.4 19.8 6.6 21.1.4.1.8.2 1.3.2 2.4 0 5.3-1.8 8.7-5.5l2.8 3.4c-9.3 11.9-19.1 17.9-29.3 17.9zm-17.3-76c-33.7 13.7-44 23-44 40 0 11.3 8.2 19.8 19 19.8 7.2 0 15.8-3.7 26.3-11.2l.5-.4v-48.9z"/><path d="m218.3 76.6-.1-.1-1.3-.8-.3-.2-70.2-40.5-1.2-.7c-6-3.4-12.9-5.3-20.3-5.3s-14.3 1.9-20.2 5.3l-1 .6-.3.2-70.6 40.7-1.4.8h-.1c-11.9 7.3-19.9 20.5-19.9 35.5v83c0 15.1 8 28.2 20 35.5l.9.5 71.9 41.5c6.1 3.5 13.1 5.5 20.7 5.5 7.5 0 14.6-2 20.7-5.5l71.8-41.5.2-.1c12.4-7.2 20.8-20.6 20.8-36v-83c-.1-15-8.1-28.2-20.1-35.4zm3.1 78.2h-.4c-52.3.2-94.9 43-94.9 95.3 0 .7-.6 1.2-1.2 1.2-.7 0-1.2-.6-1.2-1.2v-.4c-.2-52.3-43-94.9-95.3-94.9-.7 0-1.2-.6-1.2-1.2 0-.7.6-1.2 1.2-1.2h.4c52.3-.2 94.9-43 94.9-95.3 0-.7.6-1.2 1.2-1.2.7 0 1.2.6 1.2 1.2 0 52.5 42.7 95.3 95.3 95.3.7 0 1.2.6 1.2 1.2.1.7-.5 1.2-1.2 1.2z"/></g></svg>